<?xml version="1.0" encoding="utf-8" standalone="no"?>
<!DOCTYPE svg PUBLIC "-//W3C//DTD SVG 1.1//EN"
  "http://www.w3.org/Graphics/SVG/1.1/DTD/svg11.dtd">
<svg xmlns:xlink="http://www.w3.org/1999/xlink" width="960.984531pt" height="382.304062pt" viewBox="0 0 960.984531 382.304062" xmlns="http://www.w3.org/2000/svg" version="1.1">
 <metadata>
  <rdf:RDF xmlns:dc="http://purl.org/dc/elements/1.1/" xmlns:cc="http://creativecommons.org/ns#" xmlns:rdf="http://www.w3.org/1999/02/22-rdf-syntax-ns#">
   <cc:Work>
    <dc:type rdf:resource="http://purl.org/dc/dcmitype/StillImage"/>
    <dc:date>2022-10-14T20:23:56.931481</dc:date>
    <dc:format>image/svg+xml</dc:format>
    <dc:creator>
     <cc:Agent>
      <dc:title>Matplotlib v3.6.1, https://matplotlib.org/</dc:title>
     </cc:Agent>
    </dc:creator>
   </cc:Work>
  </rdf:RDF>
 </metadata>
 <defs>
  <style type="text/css">*{stroke-linejoin: round; stroke-linecap: butt}</style>
 </defs>
 <g id="figure_1">
  <g id="patch_1">
   <path d="M 0 382.304062 
L 960.984531 382.304062 
L 960.984531 0 
L 0 0 
z
" style="fill: #ffffff"/>
  </g>
  <g id="axes_1">
   <g id="patch_2">
    <path d="M 116.784531 354.958125 
L 953.784531 354.958125 
L 953.784531 22.318125 
L 116.784531 22.318125 
z
" style="fill: #ffffff"/>
   </g>
   <g id="matplotlib.axis_1">
    <g id="xtick_1">
     <g id="line2d_1">
      <path d="M 116.784531 354.958125 
L 116.784531 22.318125 
" clip-path="url(#p3c4d10da8b)" style="fill: none; stroke: #cccccc; stroke-linecap: round"/>
     </g>
     <g id="text_1">
      <!-- 0 -->
      <g style="fill: #262626" transform="translate(113.285156 372.816406) scale(0.11 -0.11)">
       <defs>
        <path id="DejaVuSans-30" d="M 2034 4250 
Q 1547 4250 1301 3770 
Q 1056 3291 1056 2328 
Q 1056 1369 1301 889 
Q 1547 409 2034 409 
Q 2525 409 2770 889 
Q 3016 1369 3016 2328 
Q 3016 3291 2770 3770 
Q 2525 4250 2034 4250 
z
M 2034 4750 
Q 2819 4750 3233 4129 
Q 3647 3509 3647 2328 
Q 3647 1150 3233 529 
Q 2819 -91 2034 -91 
Q 1250 -91 836 529 
Q 422 1150 422 2328 
Q 422 3509 836 4129 
Q 1250 4750 2034 4750 
z
" transform="scale(0.015625)"/>
       </defs>
       <use xlink:href="#DejaVuSans-30"/>
      </g>
     </g>
    </g>
    <g id="xtick_2">
     <g id="line2d_2">
      <path d="M 276.213103 354.958125 
L 276.213103 22.318125 
" clip-path="url(#p3c4d10da8b)" style="fill: none; stroke: #cccccc; stroke-linecap: round"/>
     </g>
     <g id="text_2">
      <!-- 20 -->
      <g style="fill: #262626" transform="translate(269.214353 372.816406) scale(0.11 -0.11)">
       <defs>
        <path id="DejaVuSans-32" d="M 1228 531 
L 3431 531 
L 3431 0 
L 469 0 
L 469 531 
Q 828 903 1448 1529 
Q 2069 2156 2228 2338 
Q 2531 2678 2651 2914 
Q 2772 3150 2772 3378 
Q 2772 3750 2511 3984 
Q 2250 4219 1831 4219 
Q 1534 4219 1204 4116 
Q 875 4013 500 3803 
L 500 4441 
Q 881 4594 1212 4672 
Q 1544 4750 1819 4750 
Q 2544 4750 2975 4387 
Q 3406 4025 3406 3419 
Q 3406 3131 3298 2873 
Q 3191 2616 2906 2266 
Q 2828 2175 2409 1742 
Q 1991 1309 1228 531 
z
" transform="scale(0.015625)"/>
       </defs>
       <use xlink:href="#DejaVuSans-32"/>
       <use xlink:href="#DejaVuSans-30" x="63.623047"/>
      </g>
     </g>
    </g>
    <g id="xtick_3">
     <g id="line2d_3">
      <path d="M 435.641674 354.958125 
L 435.641674 22.318125 
" clip-path="url(#p3c4d10da8b)" style="fill: none; stroke: #cccccc; stroke-linecap: round"/>
     </g>
     <g id="text_3">
      <!-- 40 -->
      <g style="fill: #262626" transform="translate(428.642924 372.816406) scale(0.11 -0.11)">
       <defs>
        <path id="DejaVuSans-34" d="M 2419 4116 
L 825 1625 
L 2419 1625 
L 2419 4116 
z
M 2253 4666 
L 3047 4666 
L 3047 1625 
L 3713 1625 
L 3713 1100 
L 3047 1100 
L 3047 0 
L 2419 0 
L 2419 1100 
L 313 1100 
L 313 1709 
L 2253 4666 
z
" transform="scale(0.015625)"/>
       </defs>
       <use xlink:href="#DejaVuSans-34"/>
       <use xlink:href="#DejaVuSans-30" x="63.623047"/>
      </g>
     </g>
    </g>
    <g id="xtick_4">
     <g id="line2d_4">
      <path d="M 595.070246 354.958125 
L 595.070246 22.318125 
" clip-path="url(#p3c4d10da8b)" style="fill: none; stroke: #cccccc; stroke-linecap: round"/>
     </g>
     <g id="text_4">
      <!-- 60 -->
      <g style="fill: #262626" transform="translate(588.071496 372.816406) scale(0.11 -0.11)">
       <defs>
        <path id="DejaVuSans-36" d="M 2113 2584 
Q 1688 2584 1439 2293 
Q 1191 2003 1191 1497 
Q 1191 994 1439 701 
Q 1688 409 2113 409 
Q 2538 409 2786 701 
Q 3034 994 3034 1497 
Q 3034 2003 2786 2293 
Q 2538 2584 2113 2584 
z
M 3366 4563 
L 3366 3988 
Q 3128 4100 2886 4159 
Q 2644 4219 2406 4219 
Q 1781 4219 1451 3797 
Q 1122 3375 1075 2522 
Q 1259 2794 1537 2939 
Q 1816 3084 2150 3084 
Q 2853 3084 3261 2657 
Q 3669 2231 3669 1497 
Q 3669 778 3244 343 
Q 2819 -91 2113 -91 
Q 1303 -91 875 529 
Q 447 1150 447 2328 
Q 447 3434 972 4092 
Q 1497 4750 2381 4750 
Q 2619 4750 2861 4703 
Q 3103 4656 3366 4563 
z
" transform="scale(0.015625)"/>
       </defs>
       <use xlink:href="#DejaVuSans-36"/>
       <use xlink:href="#DejaVuSans-30" x="63.623047"/>
      </g>
     </g>
    </g>
    <g id="xtick_5">
     <g id="line2d_5">
      <path d="M 754.498817 354.958125 
L 754.498817 22.318125 
" clip-path="url(#p3c4d10da8b)" style="fill: none; stroke: #cccccc; stroke-linecap: round"/>
     </g>
     <g id="text_5">
      <!-- 80 -->
      <g style="fill: #262626" transform="translate(747.500067 372.816406) scale(0.11 -0.11)">
       <defs>
        <path id="DejaVuSans-38" d="M 2034 2216 
Q 1584 2216 1326 1975 
Q 1069 1734 1069 1313 
Q 1069 891 1326 650 
Q 1584 409 2034 409 
Q 2484 409 2743 651 
Q 3003 894 3003 1313 
Q 3003 1734 2745 1975 
Q 2488 2216 2034 2216 
z
M 1403 2484 
Q 997 2584 770 2862 
Q 544 3141 544 3541 
Q 544 4100 942 4425 
Q 1341 4750 2034 4750 
Q 2731 4750 3128 4425 
Q 3525 4100 3525 3541 
Q 3525 3141 3298 2862 
Q 3072 2584 2669 2484 
Q 3125 2378 3379 2068 
Q 3634 1759 3634 1313 
Q 3634 634 3220 271 
Q 2806 -91 2034 -91 
Q 1263 -91 848 271 
Q 434 634 434 1313 
Q 434 1759 690 2068 
Q 947 2378 1403 2484 
z
M 1172 3481 
Q 1172 3119 1398 2916 
Q 1625 2713 2034 2713 
Q 2441 2713 2670 2916 
Q 2900 3119 2900 3481 
Q 2900 3844 2670 4047 
Q 2441 4250 2034 4250 
Q 1625 4250 1398 4047 
Q 1172 3844 1172 3481 
z
" transform="scale(0.015625)"/>
       </defs>
       <use xlink:href="#DejaVuSans-38"/>
       <use xlink:href="#DejaVuSans-30" x="63.623047"/>
      </g>
     </g>
    </g>
    <g id="xtick_6">
     <g id="line2d_6">
      <path d="M 913.927388 354.958125 
L 913.927388 22.318125 
" clip-path="url(#p3c4d10da8b)" style="fill: none; stroke: #cccccc; stroke-linecap: round"/>
     </g>
     <g id="text_6">
      <!-- 100 -->
      <g style="fill: #262626" transform="translate(903.429263 372.816406) scale(0.11 -0.11)">
       <defs>
        <path id="DejaVuSans-31" d="M 794 531 
L 1825 531 
L 1825 4091 
L 703 3866 
L 703 4441 
L 1819 4666 
L 2450 4666 
L 2450 531 
L 3481 531 
L 3481 0 
L 794 0 
L 794 531 
z
" transform="scale(0.015625)"/>
       </defs>
       <use xlink:href="#DejaVuSans-31"/>
       <use xlink:href="#DejaVuSans-30" x="63.623047"/>
       <use xlink:href="#DejaVuSans-30" x="127.246094"/>
      </g>
     </g>
    </g>
   </g>
   <g id="matplotlib.axis_2">
    <g id="ytick_1">
     <g id="text_7">
      <!--  A100 SXM4 80GB -->
      <g style="fill: #262626" transform="translate(7.2 41.617266) scale(0.11 -0.11)">
       <defs>
        <path id="DejaVuSans-20" transform="scale(0.015625)"/>
        <path id="DejaVuSans-41" d="M 2188 4044 
L 1331 1722 
L 3047 1722 
L 2188 4044 
z
M 1831 4666 
L 2547 4666 
L 4325 0 
L 3669 0 
L 3244 1197 
L 1141 1197 
L 716 0 
L 50 0 
L 1831 4666 
z
" transform="scale(0.015625)"/>
        <path id="DejaVuSans-53" d="M 3425 4513 
L 3425 3897 
Q 3066 4069 2747 4153 
Q 2428 4238 2131 4238 
Q 1616 4238 1336 4038 
Q 1056 3838 1056 3469 
Q 1056 3159 1242 3001 
Q 1428 2844 1947 2747 
L 2328 2669 
Q 3034 2534 3370 2195 
Q 3706 1856 3706 1288 
Q 3706 609 3251 259 
Q 2797 -91 1919 -91 
Q 1588 -91 1214 -16 
Q 841 59 441 206 
L 441 856 
Q 825 641 1194 531 
Q 1563 422 1919 422 
Q 2459 422 2753 634 
Q 3047 847 3047 1241 
Q 3047 1584 2836 1778 
Q 2625 1972 2144 2069 
L 1759 2144 
Q 1053 2284 737 2584 
Q 422 2884 422 3419 
Q 422 4038 858 4394 
Q 1294 4750 2059 4750 
Q 2388 4750 2728 4690 
Q 3069 4631 3425 4513 
z
" transform="scale(0.015625)"/>
        <path id="DejaVuSans-58" d="M 403 4666 
L 1081 4666 
L 2241 2931 
L 3406 4666 
L 4084 4666 
L 2584 2425 
L 4184 0 
L 3506 0 
L 2194 1984 
L 872 0 
L 191 0 
L 1856 2491 
L 403 4666 
z
" transform="scale(0.015625)"/>
        <path id="DejaVuSans-4d" d="M 628 4666 
L 1569 4666 
L 2759 1491 
L 3956 4666 
L 4897 4666 
L 4897 0 
L 4281 0 
L 4281 4097 
L 3078 897 
L 2444 897 
L 1241 4097 
L 1241 0 
L 628 0 
L 628 4666 
z
" transform="scale(0.015625)"/>
        <path id="DejaVuSans-47" d="M 3809 666 
L 3809 1919 
L 2778 1919 
L 2778 2438 
L 4434 2438 
L 4434 434 
Q 4069 175 3628 42 
Q 3188 -91 2688 -91 
Q 1594 -91 976 548 
Q 359 1188 359 2328 
Q 359 3472 976 4111 
Q 1594 4750 2688 4750 
Q 3144 4750 3555 4637 
Q 3966 4525 4313 4306 
L 4313 3634 
Q 3963 3931 3569 4081 
Q 3175 4231 2741 4231 
Q 1884 4231 1454 3753 
Q 1025 3275 1025 2328 
Q 1025 1384 1454 906 
Q 1884 428 2741 428 
Q 3075 428 3337 486 
Q 3600 544 3809 666 
z
" transform="scale(0.015625)"/>
        <path id="DejaVuSans-42" d="M 1259 2228 
L 1259 519 
L 2272 519 
Q 2781 519 3026 730 
Q 3272 941 3272 1375 
Q 3272 1813 3026 2020 
Q 2781 2228 2272 2228 
L 1259 2228 
z
M 1259 4147 
L 1259 2741 
L 2194 2741 
Q 2656 2741 2882 2914 
Q 3109 3088 3109 3444 
Q 3109 3797 2882 3972 
Q 2656 4147 2194 4147 
L 1259 4147 
z
M 628 4666 
L 2241 4666 
Q 2963 4666 3353 4366 
Q 3744 4066 3744 3513 
Q 3744 3084 3544 2831 
Q 3344 2578 2956 2516 
Q 3422 2416 3680 2098 
Q 3938 1781 3938 1306 
Q 3938 681 3513 340 
Q 3088 0 2303 0 
L 628 0 
L 628 4666 
z
" transform="scale(0.015625)"/>
       </defs>
       <use xlink:href="#DejaVuSans-20"/>
       <use xlink:href="#DejaVuSans-41" x="31.787109"/>
       <use xlink:href="#DejaVuSans-31" x="100.195312"/>
       <use xlink:href="#DejaVuSans-30" x="163.818359"/>
       <use xlink:href="#DejaVuSans-30" x="227.441406"/>
       <use xlink:href="#DejaVuSans-20" x="291.064453"/>
       <use xlink:href="#DejaVuSans-53" x="322.851562"/>
       <use xlink:href="#DejaVuSans-58" x="386.328125"/>
       <use xlink:href="#DejaVuSans-4d" x="454.833984"/>
       <use xlink:href="#DejaVuSans-34" x="541.113281"/>
       <use xlink:href="#DejaVuSans-20" x="604.736328"/>
       <use xlink:href="#DejaVuSans-38" x="636.523438"/>
       <use xlink:href="#DejaVuSans-30" x="700.146484"/>
       <use xlink:href="#DejaVuSans-47" x="763.769531"/>
       <use xlink:href="#DejaVuSans-42" x="841.259766"/>
      </g>
     </g>
    </g>
    <g id="ytick_2">
     <g id="text_8">
      <!--  A100 PCIE 40GB -->
      <g style="fill: #262626" transform="translate(13.698594 71.857266) scale(0.11 -0.11)">
       <defs>
        <path id="DejaVuSans-50" d="M 1259 4147 
L 1259 2394 
L 2053 2394 
Q 2494 2394 2734 2622 
Q 2975 2850 2975 3272 
Q 2975 3691 2734 3919 
Q 2494 4147 2053 4147 
L 1259 4147 
z
M 628 4666 
L 2053 4666 
Q 2838 4666 3239 4311 
Q 3641 3956 3641 3272 
Q 3641 2581 3239 2228 
Q 2838 1875 2053 1875 
L 1259 1875 
L 1259 0 
L 628 0 
L 628 4666 
z
" transform="scale(0.015625)"/>
        <path id="DejaVuSans-43" d="M 4122 4306 
L 4122 3641 
Q 3803 3938 3442 4084 
Q 3081 4231 2675 4231 
Q 1875 4231 1450 3742 
Q 1025 3253 1025 2328 
Q 1025 1406 1450 917 
Q 1875 428 2675 428 
Q 3081 428 3442 575 
Q 3803 722 4122 1019 
L 4122 359 
Q 3791 134 3420 21 
Q 3050 -91 2638 -91 
Q 1578 -91 968 557 
Q 359 1206 359 2328 
Q 359 3453 968 4101 
Q 1578 4750 2638 4750 
Q 3056 4750 3426 4639 
Q 3797 4528 4122 4306 
z
" transform="scale(0.015625)"/>
        <path id="DejaVuSans-49" d="M 628 4666 
L 1259 4666 
L 1259 0 
L 628 0 
L 628 4666 
z
" transform="scale(0.015625)"/>
        <path id="DejaVuSans-45" d="M 628 4666 
L 3578 4666 
L 3578 4134 
L 1259 4134 
L 1259 2753 
L 3481 2753 
L 3481 2222 
L 1259 2222 
L 1259 531 
L 3634 531 
L 3634 0 
L 628 0 
L 628 4666 
z
" transform="scale(0.015625)"/>
       </defs>
       <use xlink:href="#DejaVuSans-20"/>
       <use xlink:href="#DejaVuSans-41" x="31.787109"/>
       <use xlink:href="#DejaVuSans-31" x="100.195312"/>
       <use xlink:href="#DejaVuSans-30" x="163.818359"/>
       <use xlink:href="#DejaVuSans-30" x="227.441406"/>
       <use xlink:href="#DejaVuSans-20" x="291.064453"/>
       <use xlink:href="#DejaVuSans-50" x="322.851562"/>
       <use xlink:href="#DejaVuSans-43" x="383.154297"/>
       <use xlink:href="#DejaVuSans-49" x="452.978516"/>
       <use xlink:href="#DejaVuSans-45" x="482.470703"/>
       <use xlink:href="#DejaVuSans-20" x="545.654297"/>
       <use xlink:href="#DejaVuSans-34" x="577.441406"/>
       <use xlink:href="#DejaVuSans-30" x="641.064453"/>
       <use xlink:href="#DejaVuSans-47" x="704.6875"/>
       <use xlink:href="#DejaVuSans-42" x="782.177734"/>
      </g>
     </g>
    </g>
    <g id="ytick_3">
     <g id="text_9">
      <!--   RTX 3090 -->
      <g style="fill: #262626" transform="translate(47.702344 102.097266) scale(0.11 -0.11)">
       <defs>
        <path id="DejaVuSans-52" d="M 2841 2188 
Q 3044 2119 3236 1894 
Q 3428 1669 3622 1275 
L 4263 0 
L 3584 0 
L 2988 1197 
Q 2756 1666 2539 1819 
Q 2322 1972 1947 1972 
L 1259 1972 
L 1259 0 
L 628 0 
L 628 4666 
L 2053 4666 
Q 2853 4666 3247 4331 
Q 3641 3997 3641 3322 
Q 3641 2881 3436 2590 
Q 3231 2300 2841 2188 
z
M 1259 4147 
L 1259 2491 
L 2053 2491 
Q 2509 2491 2742 2702 
Q 2975 2913 2975 3322 
Q 2975 3731 2742 3939 
Q 2509 4147 2053 4147 
L 1259 4147 
z
" transform="scale(0.015625)"/>
        <path id="DejaVuSans-54" d="M -19 4666 
L 3928 4666 
L 3928 4134 
L 2272 4134 
L 2272 0 
L 1638 0 
L 1638 4134 
L -19 4134 
L -19 4666 
z
" transform="scale(0.015625)"/>
        <path id="DejaVuSans-33" d="M 2597 2516 
Q 3050 2419 3304 2112 
Q 3559 1806 3559 1356 
Q 3559 666 3084 287 
Q 2609 -91 1734 -91 
Q 1441 -91 1130 -33 
Q 819 25 488 141 
L 488 750 
Q 750 597 1062 519 
Q 1375 441 1716 441 
Q 2309 441 2620 675 
Q 2931 909 2931 1356 
Q 2931 1769 2642 2001 
Q 2353 2234 1838 2234 
L 1294 2234 
L 1294 2753 
L 1863 2753 
Q 2328 2753 2575 2939 
Q 2822 3125 2822 3475 
Q 2822 3834 2567 4026 
Q 2313 4219 1838 4219 
Q 1578 4219 1281 4162 
Q 984 4106 628 3988 
L 628 4550 
Q 988 4650 1302 4700 
Q 1616 4750 1894 4750 
Q 2613 4750 3031 4423 
Q 3450 4097 3450 3541 
Q 3450 3153 3228 2886 
Q 3006 2619 2597 2516 
z
" transform="scale(0.015625)"/>
        <path id="DejaVuSans-39" d="M 703 97 
L 703 672 
Q 941 559 1184 500 
Q 1428 441 1663 441 
Q 2288 441 2617 861 
Q 2947 1281 2994 2138 
Q 2813 1869 2534 1725 
Q 2256 1581 1919 1581 
Q 1219 1581 811 2004 
Q 403 2428 403 3163 
Q 403 3881 828 4315 
Q 1253 4750 1959 4750 
Q 2769 4750 3195 4129 
Q 3622 3509 3622 2328 
Q 3622 1225 3098 567 
Q 2575 -91 1691 -91 
Q 1453 -91 1209 -44 
Q 966 3 703 97 
z
M 1959 2075 
Q 2384 2075 2632 2365 
Q 2881 2656 2881 3163 
Q 2881 3666 2632 3958 
Q 2384 4250 1959 4250 
Q 1534 4250 1286 3958 
Q 1038 3666 1038 3163 
Q 1038 2656 1286 2365 
Q 1534 2075 1959 2075 
z
" transform="scale(0.015625)"/>
       </defs>
       <use xlink:href="#DejaVuSans-20"/>
       <use xlink:href="#DejaVuSans-20" x="31.787109"/>
       <use xlink:href="#DejaVuSans-52" x="63.574219"/>
       <use xlink:href="#DejaVuSans-54" x="125.806641"/>
       <use xlink:href="#DejaVuSans-58" x="186.890625"/>
       <use xlink:href="#DejaVuSans-20" x="255.396484"/>
       <use xlink:href="#DejaVuSans-33" x="287.183594"/>
       <use xlink:href="#DejaVuSans-30" x="350.806641"/>
       <use xlink:href="#DejaVuSans-39" x="414.429688"/>
       <use xlink:href="#DejaVuSans-30" x="478.052734"/>
      </g>
     </g>
    </g>
    <g id="ytick_4">
     <g id="text_10">
      <!--   RTX 3080 Ti -->
      <g style="fill: #262626" transform="translate(34.775625 132.337266) scale(0.11 -0.11)">
       <defs>
        <path id="DejaVuSans-69" d="M 603 3500 
L 1178 3500 
L 1178 0 
L 603 0 
L 603 3500 
z
M 603 4863 
L 1178 4863 
L 1178 4134 
L 603 4134 
L 603 4863 
z
" transform="scale(0.015625)"/>
       </defs>
       <use xlink:href="#DejaVuSans-20"/>
       <use xlink:href="#DejaVuSans-20" x="31.787109"/>
       <use xlink:href="#DejaVuSans-52" x="63.574219"/>
       <use xlink:href="#DejaVuSans-54" x="125.806641"/>
       <use xlink:href="#DejaVuSans-58" x="186.890625"/>
       <use xlink:href="#DejaVuSans-20" x="255.396484"/>
       <use xlink:href="#DejaVuSans-33" x="287.183594"/>
       <use xlink:href="#DejaVuSans-30" x="350.806641"/>
       <use xlink:href="#DejaVuSans-38" x="414.429688"/>
       <use xlink:href="#DejaVuSans-30" x="478.052734"/>
       <use xlink:href="#DejaVuSans-20" x="541.675781"/>
       <use xlink:href="#DejaVuSans-54" x="573.462891"/>
       <use xlink:href="#DejaVuSans-69" x="631.421875"/>
      </g>
     </g>
    </g>
    <g id="ytick_5">
     <g id="text_11">
      <!--  V100 FHHL 16GB -->
      <g style="fill: #262626" transform="translate(9.2075 162.577266) scale(0.11 -0.11)">
       <defs>
        <path id="DejaVuSans-56" d="M 1831 0 
L 50 4666 
L 709 4666 
L 2188 738 
L 3669 4666 
L 4325 4666 
L 2547 0 
L 1831 0 
z
" transform="scale(0.015625)"/>
        <path id="DejaVuSans-46" d="M 628 4666 
L 3309 4666 
L 3309 4134 
L 1259 4134 
L 1259 2759 
L 3109 2759 
L 3109 2228 
L 1259 2228 
L 1259 0 
L 628 0 
L 628 4666 
z
" transform="scale(0.015625)"/>
        <path id="DejaVuSans-48" d="M 628 4666 
L 1259 4666 
L 1259 2753 
L 3553 2753 
L 3553 4666 
L 4184 4666 
L 4184 0 
L 3553 0 
L 3553 2222 
L 1259 2222 
L 1259 0 
L 628 0 
L 628 4666 
z
" transform="scale(0.015625)"/>
        <path id="DejaVuSans-4c" d="M 628 4666 
L 1259 4666 
L 1259 531 
L 3531 531 
L 3531 0 
L 628 0 
L 628 4666 
z
" transform="scale(0.015625)"/>
       </defs>
       <use xlink:href="#DejaVuSans-20"/>
       <use xlink:href="#DejaVuSans-56" x="31.787109"/>
       <use xlink:href="#DejaVuSans-31" x="100.195312"/>
       <use xlink:href="#DejaVuSans-30" x="163.818359"/>
       <use xlink:href="#DejaVuSans-30" x="227.441406"/>
       <use xlink:href="#DejaVuSans-20" x="291.064453"/>
       <use xlink:href="#DejaVuSans-46" x="322.851562"/>
       <use xlink:href="#DejaVuSans-48" x="380.371094"/>
       <use xlink:href="#DejaVuSans-48" x="455.566406"/>
       <use xlink:href="#DejaVuSans-4c" x="530.761719"/>
       <use xlink:href="#DejaVuSans-20" x="586.474609"/>
       <use xlink:href="#DejaVuSans-31" x="618.261719"/>
       <use xlink:href="#DejaVuSans-36" x="681.884766"/>
       <use xlink:href="#DejaVuSans-47" x="745.507812"/>
       <use xlink:href="#DejaVuSans-42" x="822.998047"/>
      </g>
     </g>
    </g>
    <g id="ytick_6">
     <g id="text_12">
      <!--   RTX 2080 Ti -->
      <g style="fill: #262626" transform="translate(34.775625 192.817266) scale(0.11 -0.11)">
       <use xlink:href="#DejaVuSans-20"/>
       <use xlink:href="#DejaVuSans-20" x="31.787109"/>
       <use xlink:href="#DejaVuSans-52" x="63.574219"/>
       <use xlink:href="#DejaVuSans-54" x="125.806641"/>
       <use xlink:href="#DejaVuSans-58" x="186.890625"/>
       <use xlink:href="#DejaVuSans-20" x="255.396484"/>
       <use xlink:href="#DejaVuSans-32" x="287.183594"/>
       <use xlink:href="#DejaVuSans-30" x="350.806641"/>
       <use xlink:href="#DejaVuSans-38" x="414.429688"/>
       <use xlink:href="#DejaVuSans-30" x="478.052734"/>
       <use xlink:href="#DejaVuSans-20" x="541.675781"/>
       <use xlink:href="#DejaVuSans-54" x="573.462891"/>
       <use xlink:href="#DejaVuSans-69" x="631.421875"/>
      </g>
     </g>
    </g>
    <g id="ytick_7">
     <g id="text_13">
      <!--   RTX 3060 -->
      <g style="fill: #262626" transform="translate(47.702344 223.057266) scale(0.11 -0.11)">
       <use xlink:href="#DejaVuSans-20"/>
       <use xlink:href="#DejaVuSans-20" x="31.787109"/>
       <use xlink:href="#DejaVuSans-52" x="63.574219"/>
       <use xlink:href="#DejaVuSans-54" x="125.806641"/>
       <use xlink:href="#DejaVuSans-58" x="186.890625"/>
       <use xlink:href="#DejaVuSans-20" x="255.396484"/>
       <use xlink:href="#DejaVuSans-33" x="287.183594"/>
       <use xlink:href="#DejaVuSans-30" x="350.806641"/>
       <use xlink:href="#DejaVuSans-36" x="414.429688"/>
       <use xlink:href="#DejaVuSans-30" x="478.052734"/>
      </g>
     </g>
    </g>
    <g id="ytick_8">
     <g id="text_14">
      <!--  P100 SXM2 16GB -->
      <g style="fill: #262626" transform="translate(8.092031 253.297266) scale(0.11 -0.11)">
       <use xlink:href="#DejaVuSans-20"/>
       <use xlink:href="#DejaVuSans-50" x="31.787109"/>
       <use xlink:href="#DejaVuSans-31" x="92.089844"/>
       <use xlink:href="#DejaVuSans-30" x="155.712891"/>
       <use xlink:href="#DejaVuSans-30" x="219.335938"/>
       <use xlink:href="#DejaVuSans-20" x="282.958984"/>
       <use xlink:href="#DejaVuSans-53" x="314.746094"/>
       <use xlink:href="#DejaVuSans-58" x="378.222656"/>
       <use xlink:href="#DejaVuSans-4d" x="446.728516"/>
       <use xlink:href="#DejaVuSans-32" x="533.007812"/>
       <use xlink:href="#DejaVuSans-20" x="596.630859"/>
       <use xlink:href="#DejaVuSans-31" x="628.417969"/>
       <use xlink:href="#DejaVuSans-36" x="692.041016"/>
       <use xlink:href="#DejaVuSans-47" x="755.664062"/>
       <use xlink:href="#DejaVuSans-42" x="833.154297"/>
      </g>
     </g>
    </g>
    <g id="ytick_9">
     <g id="text_15">
      <!--   GTX 1080 Ti -->
      <g style="fill: #262626" transform="translate(33.496875 283.537266) scale(0.11 -0.11)">
       <use xlink:href="#DejaVuSans-20"/>
       <use xlink:href="#DejaVuSans-20" x="31.787109"/>
       <use xlink:href="#DejaVuSans-47" x="63.574219"/>
       <use xlink:href="#DejaVuSans-54" x="137.439453"/>
       <use xlink:href="#DejaVuSans-58" x="198.523438"/>
       <use xlink:href="#DejaVuSans-20" x="267.029297"/>
       <use xlink:href="#DejaVuSans-31" x="298.816406"/>
       <use xlink:href="#DejaVuSans-30" x="362.439453"/>
       <use xlink:href="#DejaVuSans-38" x="426.0625"/>
       <use xlink:href="#DejaVuSans-30" x="489.685547"/>
       <use xlink:href="#DejaVuSans-20" x="553.308594"/>
       <use xlink:href="#DejaVuSans-54" x="585.095703"/>
       <use xlink:href="#DejaVuSans-69" x="643.054688"/>
      </g>
     </g>
    </g>
    <g id="ytick_10">
     <g id="text_16">
      <!--  T4 -->
      <g style="fill: #262626" transform="translate(90.07125 313.777266) scale(0.11 -0.11)">
       <use xlink:href="#DejaVuSans-20"/>
       <use xlink:href="#DejaVuSans-54" x="31.787109"/>
       <use xlink:href="#DejaVuSans-34" x="92.871094"/>
      </g>
     </g>
    </g>
    <g id="ytick_11">
     <g id="text_17">
      <!--   GTX 1060 6GB -->
      <g style="fill: #262626" transform="translate(19.858594 344.017266) scale(0.11 -0.11)">
       <use xlink:href="#DejaVuSans-20"/>
       <use xlink:href="#DejaVuSans-20" x="31.787109"/>
       <use xlink:href="#DejaVuSans-47" x="63.574219"/>
       <use xlink:href="#DejaVuSans-54" x="137.439453"/>
       <use xlink:href="#DejaVuSans-58" x="198.523438"/>
       <use xlink:href="#DejaVuSans-20" x="267.029297"/>
       <use xlink:href="#DejaVuSans-31" x="298.816406"/>
       <use xlink:href="#DejaVuSans-30" x="362.439453"/>
       <use xlink:href="#DejaVuSans-36" x="426.0625"/>
       <use xlink:href="#DejaVuSans-30" x="489.685547"/>
       <use xlink:href="#DejaVuSans-20" x="553.308594"/>
       <use xlink:href="#DejaVuSans-36" x="585.095703"/>
       <use xlink:href="#DejaVuSans-47" x="648.71875"/>
       <use xlink:href="#DejaVuSans-42" x="726.208984"/>
      </g>
     </g>
    </g>
   </g>
   <g id="patch_3">
    <path d="M 116.784531 25.342125 
L 913.927388 25.342125 
L 913.927388 49.534125 
L 116.784531 49.534125 
z
" clip-path="url(#p3c4d10da8b)" style="fill: #abc9ea; stroke: #ffffff; stroke-linejoin: miter"/>
   </g>
   <g id="patch_4">
    <path d="M 116.784531 55.582125 
L 897.720249 55.582125 
L 897.720249 79.774125 
L 116.784531 79.774125 
z
" clip-path="url(#p3c4d10da8b)" style="fill: #abc9ea; stroke: #ffffff; stroke-linejoin: miter"/>
   </g>
   <g id="patch_5">
    <path d="M 116.784531 85.822125 
L 603.331669 85.822125 
L 603.331669 110.014125 
L 116.784531 110.014125 
z
" clip-path="url(#p3c4d10da8b)" style="fill: #abc9ea; stroke: #ffffff; stroke-linejoin: miter"/>
   </g>
   <g id="patch_6">
    <path d="M 116.784531 116.062125 
L 571.526811 116.062125 
L 571.526811 140.254125 
L 116.784531 140.254125 
z
" clip-path="url(#p3c4d10da8b)" style="fill: #abc9ea; stroke: #ffffff; stroke-linejoin: miter"/>
   </g>
   <g id="patch_7">
    <path d="M 116.784531 146.302125 
L 505.394827 146.302125 
L 505.394827 170.494125 
L 116.784531 170.494125 
z
" clip-path="url(#p3c4d10da8b)" style="fill: #abc9ea; stroke: #ffffff; stroke-linejoin: miter"/>
   </g>
   <g id="patch_8">
    <path d="M 116.784531 176.542125 
L 447.144654 176.542125 
L 447.144654 200.734125 
L 116.784531 200.734125 
z
" clip-path="url(#p3c4d10da8b)" style="fill: #abc9ea; stroke: #ffffff; stroke-linejoin: miter"/>
   </g>
   <g id="patch_9">
    <path d="M 116.784531 206.782125 
L 309.433495 206.782125 
L 309.433495 230.974125 
L 116.784531 230.974125 
z
" clip-path="url(#p3c4d10da8b)" style="fill: #abc9ea; stroke: #ffffff; stroke-linejoin: miter"/>
   </g>
   <g id="patch_10">
    <path d="M 116.784531 237.022125 
L 270.233477 237.022125 
L 270.233477 261.214125 
L 116.784531 261.214125 
z
" clip-path="url(#p3c4d10da8b)" style="fill: #abc9ea; stroke: #ffffff; stroke-linejoin: miter"/>
   </g>
   <g id="patch_11">
    <path d="M 116.784531 267.262125 
L 252.308358 267.262125 
L 252.308358 291.454125 
L 116.784531 291.454125 
z
" clip-path="url(#p3c4d10da8b)" style="fill: #abc9ea; stroke: #ffffff; stroke-linejoin: miter"/>
   </g>
   <g id="patch_12">
    <path d="M 116.784531 297.502125 
L 185.923778 297.502125 
L 185.923778 321.694125 
L 116.784531 321.694125 
z
" clip-path="url(#p3c4d10da8b)" style="fill: #abc9ea; stroke: #ffffff; stroke-linejoin: miter"/>
   </g>
   <g id="patch_13">
    <path d="M 116.784531 327.742125 
L 174.482792 327.742125 
L 174.482792 351.934125 
L 116.784531 351.934125 
z
" clip-path="url(#p3c4d10da8b)" style="fill: #abc9ea; stroke: #ffffff; stroke-linejoin: miter"/>
   </g>
   <g id="patch_14">
    <path d="M 116.784531 25.342125 
L 639.912346 25.342125 
L 639.912346 49.534125 
L 116.784531 49.534125 
z
" clip-path="url(#p3c4d10da8b)" style="fill: #597dbf; opacity: 0.8; stroke: #ffffff; stroke-linejoin: miter"/>
   </g>
   <g id="patch_15">
    <path d="M 116.784531 55.582125 
L 603.719185 55.582125 
L 603.719185 79.774125 
L 116.784531 79.774125 
z
" clip-path="url(#p3c4d10da8b)" style="fill: #597dbf; opacity: 0.8; stroke: #ffffff; stroke-linejoin: miter"/>
   </g>
   <g id="patch_16">
    <path d="M 116.784531 85.822125 
L 397.681054 85.822125 
L 397.681054 110.014125 
L 116.784531 110.014125 
z
" clip-path="url(#p3c4d10da8b)" style="fill: #597dbf; opacity: 0.8; stroke: #ffffff; stroke-linejoin: miter"/>
   </g>
   <g id="patch_17">
    <path d="M 116.784531 116.062125 
L 361.296459 116.062125 
L 361.296459 140.254125 
L 116.784531 140.254125 
z
" clip-path="url(#p3c4d10da8b)" style="fill: #597dbf; opacity: 0.8; stroke: #ffffff; stroke-linejoin: miter"/>
   </g>
   <g id="patch_18">
    <path d="M 116.784531 146.302125 
L 265.701399 146.302125 
L 265.701399 170.494125 
L 116.784531 170.494125 
z
" clip-path="url(#p3c4d10da8b)" style="fill: #597dbf; opacity: 0.8; stroke: #ffffff; stroke-linejoin: miter"/>
   </g>
   <g id="patch_19">
    <path d="M 116.784531 176.542125 
L 260.069618 176.542125 
L 260.069618 200.734125 
L 116.784531 200.734125 
z
" clip-path="url(#p3c4d10da8b)" style="fill: #597dbf; opacity: 0.8; stroke: #ffffff; stroke-linejoin: miter"/>
   </g>
   <g id="patch_20">
    <path d="M 116.784531 206.782125 
L 219.955615 206.782125 
L 219.955615 230.974125 
L 116.784531 230.974125 
z
" clip-path="url(#p3c4d10da8b)" style="fill: #597dbf; opacity: 0.8; stroke: #ffffff; stroke-linejoin: miter"/>
   </g>
   <g id="patch_21">
    <path d="M 116.784531 237.022125 
L 243.380162 237.022125 
L 243.380162 261.214125 
L 116.784531 261.214125 
z
" clip-path="url(#p3c4d10da8b)" style="fill: #597dbf; opacity: 0.8; stroke: #ffffff; stroke-linejoin: miter"/>
   </g>
   <g id="patch_22">
    <path d="M 116.784531 267.262125 
L 219.614009 267.262125 
L 219.614009 291.454125 
L 116.784531 291.454125 
z
" clip-path="url(#p3c4d10da8b)" style="fill: #597dbf; opacity: 0.8; stroke: #ffffff; stroke-linejoin: miter"/>
   </g>
   <g id="patch_23">
    <path d="M 116.784531 297.502125 
L 143.308892 297.502125 
L 143.308892 321.694125 
L 116.784531 321.694125 
z
" clip-path="url(#p3c4d10da8b)" style="fill: #597dbf; opacity: 0.8; stroke: #ffffff; stroke-linejoin: miter"/>
   </g>
   <g id="patch_24">
    <path d="M 116.784531 327.742125 
L 159.777131 327.742125 
L 159.777131 351.934125 
L 116.784531 351.934125 
z
" clip-path="url(#p3c4d10da8b)" style="fill: #597dbf; opacity: 0.8; stroke: #ffffff; stroke-linejoin: miter"/>
   </g>
   <g id="line2d_7">
    <path clip-path="url(#p3c4d10da8b)" style="fill: none; stroke: #424242; stroke-width: 2.7; stroke-linecap: round"/>
   </g>
   <g id="line2d_8">
    <path clip-path="url(#p3c4d10da8b)" style="fill: none; stroke: #424242; stroke-width: 2.7; stroke-linecap: round"/>
   </g>
   <g id="line2d_9">
    <path clip-path="url(#p3c4d10da8b)" style="fill: none; stroke: #424242; stroke-width: 2.7; stroke-linecap: round"/>
   </g>
   <g id="line2d_10">
    <path clip-path="url(#p3c4d10da8b)" style="fill: none; stroke: #424242; stroke-width: 2.7; stroke-linecap: round"/>
   </g>
   <g id="line2d_11">
    <path clip-path="url(#p3c4d10da8b)" style="fill: none; stroke: #424242; stroke-width: 2.7; stroke-linecap: round"/>
   </g>
   <g id="line2d_12">
    <path clip-path="url(#p3c4d10da8b)" style="fill: none; stroke: #424242; stroke-width: 2.7; stroke-linecap: round"/>
   </g>
   <g id="line2d_13">
    <path clip-path="url(#p3c4d10da8b)" style="fill: none; stroke: #424242; stroke-width: 2.7; stroke-linecap: round"/>
   </g>
   <g id="line2d_14">
    <path clip-path="url(#p3c4d10da8b)" style="fill: none; stroke: #424242; stroke-width: 2.7; stroke-linecap: round"/>
   </g>
   <g id="line2d_15">
    <path clip-path="url(#p3c4d10da8b)" style="fill: none; stroke: #424242; stroke-width: 2.7; stroke-linecap: round"/>
   </g>
   <g id="line2d_16">
    <path clip-path="url(#p3c4d10da8b)" style="fill: none; stroke: #424242; stroke-width: 2.7; stroke-linecap: round"/>
   </g>
   <g id="line2d_17">
    <path clip-path="url(#p3c4d10da8b)" style="fill: none; stroke: #424242; stroke-width: 2.7; stroke-linecap: round"/>
   </g>
   <g id="line2d_18">
    <path clip-path="url(#p3c4d10da8b)" style="fill: none; stroke: #424242; stroke-width: 2.7; stroke-linecap: round"/>
   </g>
   <g id="line2d_19">
    <path clip-path="url(#p3c4d10da8b)" style="fill: none; stroke: #424242; stroke-width: 2.7; stroke-linecap: round"/>
   </g>
   <g id="line2d_20">
    <path clip-path="url(#p3c4d10da8b)" style="fill: none; stroke: #424242; stroke-width: 2.7; stroke-linecap: round"/>
   </g>
   <g id="line2d_21">
    <path clip-path="url(#p3c4d10da8b)" style="fill: none; stroke: #424242; stroke-width: 2.7; stroke-linecap: round"/>
   </g>
   <g id="line2d_22">
    <path clip-path="url(#p3c4d10da8b)" style="fill: none; stroke: #424242; stroke-width: 2.7; stroke-linecap: round"/>
   </g>
   <g id="line2d_23">
    <path clip-path="url(#p3c4d10da8b)" style="fill: none; stroke: #424242; stroke-width: 2.7; stroke-linecap: round"/>
   </g>
   <g id="line2d_24">
    <path clip-path="url(#p3c4d10da8b)" style="fill: none; stroke: #424242; stroke-width: 2.7; stroke-linecap: round"/>
   </g>
   <g id="line2d_25">
    <path clip-path="url(#p3c4d10da8b)" style="fill: none; stroke: #424242; stroke-width: 2.7; stroke-linecap: round"/>
   </g>
   <g id="line2d_26">
    <path clip-path="url(#p3c4d10da8b)" style="fill: none; stroke: #424242; stroke-width: 2.7; stroke-linecap: round"/>
   </g>
   <g id="line2d_27">
    <path clip-path="url(#p3c4d10da8b)" style="fill: none; stroke: #424242; stroke-width: 2.7; stroke-linecap: round"/>
   </g>
   <g id="line2d_28">
    <path clip-path="url(#p3c4d10da8b)" style="fill: none; stroke: #424242; stroke-width: 2.7; stroke-linecap: round"/>
   </g>
   <g id="patch_25">
    <path d="M 116.784531 354.958125 
L 116.784531 22.318125 
" style="fill: none; stroke: #cccccc; stroke-width: 1.25; stroke-linejoin: miter; stroke-linecap: square"/>
   </g>
   <g id="patch_26">
    <path d="M 953.784531 354.958125 
L 953.784531 22.318125 
" style="fill: none; stroke: #cccccc; stroke-width: 1.25; stroke-linejoin: miter; stroke-linecap: square"/>
   </g>
   <g id="patch_27">
    <path d="M 116.784531 354.958125 
L 953.784531 354.958125 
" style="fill: none; stroke: #cccccc; stroke-width: 1.25; stroke-linejoin: miter; stroke-linecap: square"/>
   </g>
   <g id="patch_28">
    <path d="M 116.784531 22.318125 
L 953.784531 22.318125 
" style="fill: none; stroke: #cccccc; stroke-width: 1.25; stroke-linejoin: miter; stroke-linecap: square"/>
   </g>
   <g id="text_18">
    <!-- resnet50 -->
    <g style="fill: #262626" transform="translate(508.653906 16.318125) scale(0.12 -0.12)">
     <defs>
      <path id="DejaVuSans-72" d="M 2631 2963 
Q 2534 3019 2420 3045 
Q 2306 3072 2169 3072 
Q 1681 3072 1420 2755 
Q 1159 2438 1159 1844 
L 1159 0 
L 581 0 
L 581 3500 
L 1159 3500 
L 1159 2956 
Q 1341 3275 1631 3429 
Q 1922 3584 2338 3584 
Q 2397 3584 2469 3576 
Q 2541 3569 2628 3553 
L 2631 2963 
z
" transform="scale(0.015625)"/>
      <path id="DejaVuSans-65" d="M 3597 1894 
L 3597 1613 
L 953 1613 
Q 991 1019 1311 708 
Q 1631 397 2203 397 
Q 2534 397 2845 478 
Q 3156 559 3463 722 
L 3463 178 
Q 3153 47 2828 -22 
Q 2503 -91 2169 -91 
Q 1331 -91 842 396 
Q 353 884 353 1716 
Q 353 2575 817 3079 
Q 1281 3584 2069 3584 
Q 2775 3584 3186 3129 
Q 3597 2675 3597 1894 
z
M 3022 2063 
Q 3016 2534 2758 2815 
Q 2500 3097 2075 3097 
Q 1594 3097 1305 2825 
Q 1016 2553 972 2059 
L 3022 2063 
z
" transform="scale(0.015625)"/>
      <path id="DejaVuSans-73" d="M 2834 3397 
L 2834 2853 
Q 2591 2978 2328 3040 
Q 2066 3103 1784 3103 
Q 1356 3103 1142 2972 
Q 928 2841 928 2578 
Q 928 2378 1081 2264 
Q 1234 2150 1697 2047 
L 1894 2003 
Q 2506 1872 2764 1633 
Q 3022 1394 3022 966 
Q 3022 478 2636 193 
Q 2250 -91 1575 -91 
Q 1294 -91 989 -36 
Q 684 19 347 128 
L 347 722 
Q 666 556 975 473 
Q 1284 391 1588 391 
Q 1994 391 2212 530 
Q 2431 669 2431 922 
Q 2431 1156 2273 1281 
Q 2116 1406 1581 1522 
L 1381 1569 
Q 847 1681 609 1914 
Q 372 2147 372 2553 
Q 372 3047 722 3315 
Q 1072 3584 1716 3584 
Q 2034 3584 2315 3537 
Q 2597 3491 2834 3397 
z
" transform="scale(0.015625)"/>
      <path id="DejaVuSans-6e" d="M 3513 2113 
L 3513 0 
L 2938 0 
L 2938 2094 
Q 2938 2591 2744 2837 
Q 2550 3084 2163 3084 
Q 1697 3084 1428 2787 
Q 1159 2491 1159 1978 
L 1159 0 
L 581 0 
L 581 3500 
L 1159 3500 
L 1159 2956 
Q 1366 3272 1645 3428 
Q 1925 3584 2291 3584 
Q 2894 3584 3203 3211 
Q 3513 2838 3513 2113 
z
" transform="scale(0.015625)"/>
      <path id="DejaVuSans-74" d="M 1172 4494 
L 1172 3500 
L 2356 3500 
L 2356 3053 
L 1172 3053 
L 1172 1153 
Q 1172 725 1289 603 
Q 1406 481 1766 481 
L 2356 481 
L 2356 0 
L 1766 0 
Q 1100 0 847 248 
Q 594 497 594 1153 
L 594 3053 
L 172 3053 
L 172 3500 
L 594 3500 
L 594 4494 
L 1172 4494 
z
" transform="scale(0.015625)"/>
      <path id="DejaVuSans-35" d="M 691 4666 
L 3169 4666 
L 3169 4134 
L 1269 4134 
L 1269 2991 
Q 1406 3038 1543 3061 
Q 1681 3084 1819 3084 
Q 2600 3084 3056 2656 
Q 3513 2228 3513 1497 
Q 3513 744 3044 326 
Q 2575 -91 1722 -91 
Q 1428 -91 1123 -41 
Q 819 9 494 109 
L 494 744 
Q 775 591 1075 516 
Q 1375 441 1709 441 
Q 2250 441 2565 725 
Q 2881 1009 2881 1497 
Q 2881 1984 2565 2268 
Q 2250 2553 1709 2553 
Q 1456 2553 1204 2497 
Q 953 2441 691 2322 
L 691 4666 
z
" transform="scale(0.015625)"/>
     </defs>
     <use xlink:href="#DejaVuSans-72"/>
     <use xlink:href="#DejaVuSans-65" x="38.863281"/>
     <use xlink:href="#DejaVuSans-73" x="100.386719"/>
     <use xlink:href="#DejaVuSans-6e" x="152.486328"/>
     <use xlink:href="#DejaVuSans-65" x="215.865234"/>
     <use xlink:href="#DejaVuSans-74" x="277.388672"/>
     <use xlink:href="#DejaVuSans-35" x="316.597656"/>
     <use xlink:href="#DejaVuSans-30" x="380.220703"/>
    </g>
   </g>
   <g id="legend_1">
    <g id="patch_29">
     <path d="M 804.170781 349.458125 
L 946.084531 349.458125 
Q 948.284531 349.458125 948.284531 347.258125 
L 948.284531 332.212187 
Q 948.284531 330.012187 946.084531 330.012187 
L 804.170781 330.012187 
Q 801.970781 330.012187 801.970781 332.212187 
L 801.970781 347.258125 
Q 801.970781 349.458125 804.170781 349.458125 
z
" style="fill: #ffffff; opacity: 0.8; stroke: #cccccc; stroke-linejoin: miter"/>
    </g>
    <g id="patch_30">
     <path d="M 806.370781 342.770469 
L 828.370781 342.770469 
L 828.370781 335.070469 
L 806.370781 335.070469 
z
" style="fill: #abc9ea; stroke: #ffffff; stroke-linejoin: miter"/>
    </g>
    <g id="text_19">
     <!-- FP16 -->
     <g style="fill: #262626" transform="translate(837.170781 342.770469) scale(0.11 -0.11)">
      <use xlink:href="#DejaVuSans-46"/>
      <use xlink:href="#DejaVuSans-50" x="57.519531"/>
      <use xlink:href="#DejaVuSans-31" x="117.822266"/>
      <use xlink:href="#DejaVuSans-36" x="181.445312"/>
     </g>
    </g>
    <g id="patch_31">
     <path d="M 886.127656 342.770469 
L 908.127656 342.770469 
L 908.127656 335.070469 
L 886.127656 335.070469 
z
" style="fill: #597dbf; opacity: 0.8; stroke: #ffffff; stroke-linejoin: miter"/>
    </g>
    <g id="text_20">
     <!-- FP32 -->
     <g style="fill: #262626" transform="translate(916.927656 342.770469) scale(0.11 -0.11)">
      <use xlink:href="#DejaVuSans-46"/>
      <use xlink:href="#DejaVuSans-50" x="57.519531"/>
      <use xlink:href="#DejaVuSans-33" x="117.822266"/>
      <use xlink:href="#DejaVuSans-32" x="181.445312"/>
     </g>
    </g>
   </g>
  </g>
 </g>
 <defs>
  <clipPath id="p3c4d10da8b">
   <rect x="116.784531" y="22.318125" width="837" height="332.64"/>
  </clipPath>
 </defs>
</svg>
